<?xml version="1.0" encoding="utf-8"?>
<!-- Generator: Adobe Illustrator 26.0.3, SVG Export Plug-In . SVG Version: 6.00 Build 0)  -->
<svg version="1.1" id="Layer_1" xmlns="http://www.w3.org/2000/svg" xmlns:xlink="http://www.w3.org/1999/xlink" x="0px" y="0px"
	 viewBox="0 0 800 271.9" style="enable-background:new 0 0 800 271.9;" xml:space="preserve">
<style type="text/css">
	.st0{fill-rule:evenodd;clip-rule:evenodd;fill:#A0A2C8;}
</style>
<path class="st0" d="M746,0c-12.2,0-22.1,9.9-22.2,22.2c0,12.3,9.9,22.3,22.2,22.4c12.3,0,22.3-10,22.4-22.4
	C768.3,9.9,758.3,0,746,0z M746,3.3c10.4,0,18.9,8.4,19,18.8c-0.1,10.5-8.5,19-19,19.1c-10.5-0.1-18.9-8.6-18.8-19.1
	C727.2,11.8,735.6,3.3,746,3.3C746,3.3,746,3.3,746,3.3z M281.6,4.9c-27.6,0-47.7,18.3-50.5,50.5h-21.3v15.9h21.1v153.3h23.9V71.3
	h53.4c-19.9,16-32.6,42.3-32.6,71.6c0,48.6,35,87.9,78.4,88.4c0.3,0.1,0.6,0.2,0.9,0.2c43.8,0,79.1-39.7,79.1-88.6
	c0-5.7-0.5-11.4-1.5-17.1c7.9,12.6,23,18.9,43.2,27.7c24,10.1,37.2,18.8,37.2,33.9c0,18.1-16.9,27.4-36.1,27.2
	c-18.8,0-33.6-7.6-49.9-22.4v28.4c10,6.4,25.4,10.2,42.1,10.2c12.8-0.1,34-3,48.5-15.3c9.2-7.7,15.7-19.3,15.7-36.3
	c-0.1-14-6.3-23.7-15.7-31.2c-8.2-6.6-18.9-11.7-29.9-16.4c-28.9-14.3-39.8-17.3-39.4-33.7c0-21.8,18.8-28.4,33.7-28.4
	c5.8,0,11.6,0.9,17.1,2.9c9.8,3.6,12.9,10.7,16.4,18.6c1.1,2.4,1.8,3.9,2.2,4.9c0.2,0.3,0.3,0.6,0.5,0.9c0.2,0.4,0.1,0.5,0,0.2
	l45,108.1c-7.6,17.2-16.1,35.5-21.9,47l-0.2,0.2c-0.9,1.7-1.7,3.4-2.4,4.6c-0.8,1.5-1.6,3-2.4,4.4l-5.5,10.4h23.3
	c10.2-22.6,53.6-128.1,62.9-150.7c6.1,16.3,21,22.9,43.9,32.8c23.9,10.1,37.4,18.8,37.4,33.9c0,18-17.1,27.5-36.3,27.3
	c-19.4,0-34.5-8.1-51.6-23.9l-1.6-1.3v28.8c9.5,8,26.7,12.6,45.4,12.6c20.9,0,64.3-7.6,64.3-51.4c-0.1-26.2-22-37.8-45.7-47.9
	c-28.9-14.3-38.7-17.2-38.3-33.5c0-21.8,17.8-28.4,32.6-28.4c16.9,0,27.5,6.2,42.3,17V61.8c-12-4.2-22.2-5.8-35.9-5.8
	c-27.3,0-52,9.9-58.3,33l-33.9,83.8l-3.5,10.6l-3.1-10.6L528.6,61.6c-3.1-0.9-7-2-11.1-2.9c-8.5-1.8-18.2-3.2-25.7-3.1
	c-1.1-0.1-2.2-0.2-3.3-0.2c-31.7,0-62.2,13.3-62.2,44.8c0,1.8,0.1,3.7,0.2,5.3c-12.7-30.2-39.8-51-71.6-51H354
	c-3.5,0.1-7,0.4-10.4,0.9h-89.3c-3.6-22.4,6.8-35.4,22.6-35.4c19.9,0,28.4,6,37,14h0.9c0,0,0.1-1,0.2-2.7V9.5
	C309.3,6.9,299.6,4.9,281.6,4.9L281.6,4.9z M31.6,5.5v219.1H58V5.5H31.6z M737.8,9.9v23.5h4.2v-9.5h4.9l3.8,9.5h4.9l-4.4-10.2
	c1.5-0.8,4-1.5,4-5.8c0-6.5-4.8-7.5-9.1-7.5L737.8,9.9z M742,13.9h4.7c2.5,0,4,1,4,3.1s-1.6,3.1-3.5,3.1H742V13.9z M159.7,54.7
	c-29,0-41.1,10.4-50.7,20.8c-0.5,0.6-0.9,1.3-1.1,2h-0.4l-0.2-20.6H83.9v167.7h23.9V102.1c0.7-15,22.1-29.9,38.6-29.9
	c19.9,0,36.1,13.5,36.1,31.9v120.5h23.7V93.3C205.6,78.4,187.5,54.7,159.7,54.7L159.7,54.7z M352.7,72h1.3
	c29.3,0.3,53.2,31.8,53.8,70.9c0.7,39.8-22.8,72.6-52.7,73.1H354c-29.4-0.3-53.5-31.9-54.3-71.1C299,105.2,322.8,72.5,352.7,72
	L352.7,72z"/>
</svg>
